<svg xmlns="http://www.w3.org/2000/svg" fill="none" viewBox="0 0 298 56"><g transform="translate(2 3)scale(.0957)"><rect width="512" height="512" fill="#3D7BE0" rx="112"/><rect width="312" height="286" x="100" y="142" fill="#fff" rx="44"/><rect width="50" height="110" x="154" y="91" fill="#3D7BE0" rx="25"/><rect width="36" height="96" x="161" y="98" fill="#fff" rx="18"/><rect width="50" height="110" x="302" y="91" fill="#3D7BE0" rx="25"/><rect width="36" height="96" x="309" y="98" fill="#fff" rx="18"/><rect width="250" height="167" x="131" y="223" fill="#3D7BE0" rx="10"/><g fill="#EFF4FC"><rect width="50" height="50" x="158" y="251" rx="11"/><rect width="50" height="50" x="231" y="251" rx="11"/><rect width="50" height="50" x="304" y="251" rx="11"/><rect width="50" height="50" x="158" y="321" rx="11"/><rect width="50" height="50" x="231" y="321" rx="11"/></g></g><path fill="#5B6B86" d="M71.83 12.88q.3 0 .66.04.35.03.6.08l-.23 2.36q-.22-.06-.55-.1l-.59-.02q-.67 0-1.29.22-.6.22-1.08.66-.47.45-.74 1.11t-.27 1.55V25H65.8V13.1h1.98l.34 2.1h.12q.36-.63.88-1.16.53-.52 1.21-.84t1.5-.32m8.5 0q1.6 0 2.74.66 1.14.65 1.75 1.86.61 1.2.61 2.88v1.35h-7.94q.04 1.73.93 2.66t2.49.94q1.14 0 2.04-.22t1.88-.65v2.05q-.9.42-1.82.61-.92.2-2.21.2-1.75 0-3.08-.69-1.32-.68-2.07-2.03-.75-1.36-.75-3.37t.68-3.39 1.9-2.13 2.86-.73m0 1.9q-1.18 0-1.92.78-.74.77-.86 2.26h5.4q0-.89-.29-1.57-.28-.7-.86-1.08-.57-.39-1.46-.39m12.9-1.9q2.26 0 3.42 1 1.15 1 1.15 3.12v8h-1.79l-.48-1.69h-.09q-.5.65-1.04 1.07t-1.24.63-1.72.2q-1.06 0-1.9-.39t-1.32-1.2-.48-2.04q0-1.83 1.37-2.76t4.14-1.02l2.06-.07v-.63q0-1.23-.57-1.76-.58-.52-1.62-.52-.9 0-1.73.25-.84.26-1.63.64l-.82-1.79q.87-.46 1.98-.75 1.12-.29 2.32-.29m2.07 6.44-1.53.05q-1.9.07-2.66.65t-.76 1.59q0 .88.53 1.28.52.4 1.38.4 1.31 0 2.18-.74.86-.75.86-2.2Zm11.13 5.9q-1.69 0-2.92-.66-1.24-.66-1.9-2-.67-1.36-.67-3.45 0-2.17.73-3.54t2.03-2.03 2.97-.66q1.06 0 1.92.21.87.21 1.47.51l-.75 2.02q-.66-.27-1.34-.45-.7-.18-1.33-.18-1.04 0-1.73.46-.7.46-1.03 1.38-.34.9-.34 2.26 0 1.31.34 2.2t1.02 1.36 1.67.46 1.75-.24 1.46-.6v2.18q-.68.39-1.45.58t-1.9.18m10.86-2.05q.5 0 .98-.09t.88-.22v1.91q-.42.19-1.09.32-.66.12-1.38.12-1.01 0-1.82-.33-.8-.34-1.28-1.17-.47-.83-.47-2.29v-6.39h-1.62V13.9l1.74-.89.83-2.54h1.59v2.64h3.4v1.92h-3.4v6.36q0 .9.45 1.34t1.19.44m16.79-10.29q2 0 3.13 1.04t1.12 3.32V25h-2.52v-7.28q0-1.39-.57-2.08t-1.76-.7q-1.73 0-2.4 1.07-.68 1.06-.68 3.08V25h-2.52V13.1h1.96l.36 1.62h.14q.39-.62.96-1.03.58-.4 1.29-.6t1.49-.2m12.74 0q2.25 0 3.4 1 1.16 1 1.16 3.12v8h-1.8l-.48-1.69h-.08q-.5.65-1.04 1.07t-1.24.63-1.72.2q-1.06 0-1.9-.39t-1.32-1.2-.48-2.04q0-1.83 1.37-2.76t4.14-1.02l2.06-.07v-.63q0-1.23-.57-1.76-.58-.52-1.62-.52-.9 0-1.73.25-.84.26-1.63.64l-.82-1.79q.87-.46 1.98-.75t2.32-.29m2.06 6.44-1.54.05q-1.89.07-2.65.65t-.76 1.59q0 .88.52 1.28.53.4 1.39.4 1.31 0 2.17-.74.87-.75.87-2.2Zm10.76 3.85q.5 0 .98-.09t.88-.22v1.91q-.42.19-1.08.32-.67.12-1.39.12-1.01 0-1.82-.33-.8-.34-1.27-1.17-.48-.83-.48-2.29v-6.39h-1.62V13.9l1.74-.89.83-2.54H158v2.64h3.4v1.92H158v6.36q0 .9.45 1.34t1.2.44m7.1-10.06V25h-2.52V13.1Zm-1.24-4.56q.58 0 1 .32.42.3.42 1.07 0 .75-.42 1.07t-1 .32q-.6 0-1.02-.32-.41-.32-.41-1.07 0-.76.41-1.07t1.02-.32M173.37 25l-4.52-11.9h2.67l2.45 7q.24.66.43 1.43.2.77.27 1.3h.08q.08-.55.3-1.32.21-.76.44-1.42l2.44-6.98h2.67L176.08 25Zm14.07-12.12q1.59 0 2.73.66 1.14.65 1.75 1.86.61 1.2.61 2.88v1.35h-7.94q.05 1.73.93 2.66.89.94 2.49.94 1.14 0 2.05-.22t1.87-.65v2.05q-.9.42-1.81.61-.93.2-2.22.2-1.75 0-3.08-.69-1.32-.68-2.07-2.03-.74-1.36-.74-3.37t.67-3.39 1.9-2.13q1.23-.73 2.86-.73m0 1.9q-1.2 0-1.93.78-.73.77-.86 2.26h5.41q0-.89-.3-1.57-.28-.7-.85-1.08-.58-.39-1.47-.39"/><path fill="#15233B" d="M77.77 45.14q0 1.67-.78 2.82-.79 1.15-2.34 1.74t-3.87.6q-1.71 0-2.93-.23-1.23-.22-2.47-.73v-3.7q1.33.61 2.86 1t2.69.39q1.3 0 1.87-.4.56-.38.56-1.01 0-.41-.23-.74-.22-.33-.97-.75-.75-.41-2.34-1.09-1.54-.64-2.53-1.3t-1.47-1.56-.47-2.3q0-2.26 1.76-3.41 1.77-1.15 4.73-1.15 1.52 0 2.9.3 1.39.31 2.85.98l-1.34 3.23q-1.22-.53-2.3-.87t-2.19-.33q-.98 0-1.48.26t-.5.8q0 .4.26.7.26.32 1 .69t2.17.96q1.4.57 2.42 1.2 1.03.62 1.58 1.53.56.92.56 2.37m18.72-11.52V50h-3.43l-.6-2.1h-.24q-.52.84-1.32 1.37-.79.52-1.74.77t-1.98.25q-1.75 0-3.06-.62-1.3-.62-2.03-1.94t-.72-3.43V33.62h4.47v9.57q0 1.76.63 2.65.63.9 2 .9 1.36 0 2.14-.63.78-.62 1.1-1.83.3-1.2.3-2.95v-7.7Zm14-.3q2.76 0 4.47 2.15 1.7 2.15 1.7 6.31 0 2.79-.8 4.68-.8 1.9-2.23 2.87-1.42.96-3.26.96-1.19 0-2.04-.3t-1.45-.77-1.04-1.02h-.23q.11.58.17 1.2.06.61.06 1.2v6.6h-4.47V33.63h3.64l.63 2.13h.2q.44-.66 1.07-1.22t1.52-.88 2.05-.33m-1.44 3.57q-1.17 0-1.86.48-.69.49-1 1.45-.32.97-.35 2.45v.48q0 1.58.3 2.68t1.01 1.67 1.96.57q1.02 0 1.68-.57t.99-1.67.33-2.7q0-2.4-.75-3.62-.74-1.22-2.31-1.22m18.26-3.57q2.27 0 3.91.87t2.54 2.52.89 4.05v2.16h-10.56q.07 1.9 1.13 2.97t2.95 1.08q1.57 0 2.88-.32 1.3-.33 2.68-.97v3.46q-1.22.6-2.55.87-1.32.28-3.21.28-2.46 0-4.36-.9-1.9-.91-2.97-2.77t-1.08-4.7q0-2.86.98-4.77.97-1.92 2.71-2.88 1.75-.95 4.06-.95m.03 3.17q-1.3 0-2.16.84-.86.83-.99 2.62h6.27q-.02-1-.36-1.77-.34-.78-1.02-1.23-.69-.46-1.74-.46m20.28-3.17q.34 0 .79.03.44.04.72.1l-.34 4.19q-.22-.08-.62-.11-.4-.04-.7-.04-.86 0-1.67.22t-1.46.71-1.02 1.29-.37 1.96V50h-4.47V33.62h3.39l.65 2.76h.22q.49-.84 1.21-1.53.73-.7 1.66-1.12.93-.41 2.01-.41m19.33 16.97q-2.43 0-4.15-.88-1.71-.89-2.6-2.75t-.9-4.76q0-3 1.02-4.9t2.83-2.8q1.8-.88 4.2-.88 1.7 0 2.93.33 1.24.32 2.16.78l-1.32 3.46q-1.05-.43-1.96-.7t-1.82-.27q-1.17 0-1.94.55-.78.55-1.16 1.65t-.38 2.75q0 1.63.4 2.7.42 1.06 1.2 1.58.77.52 1.88.52 1.4 0 2.48-.37t2.1-1.05v3.83q-1.02.64-2.14.93-1.12.28-2.83.28m15.68-17q3.3 0 5.06 1.43 1.75 1.44 1.75 4.37V50h-3.12l-.86-2.23h-.12q-.7.88-1.43 1.44-.74.56-1.69.82t-2.31.26q-1.45 0-2.6-.55-1.15-.56-1.81-1.71t-.66-2.92q0-2.61 1.83-3.85t5.5-1.37l2.83-.09v-.71q0-1.3-.67-1.9t-1.87-.6-2.33.34q-1.15.34-2.29.85l-1.48-3.01q1.3-.7 2.92-1.09t3.35-.4M185 42.4l-1.72.06q-2.17.06-3.01.78-.85.71-.85 1.89 0 1.02.6 1.45.6.44 1.57.44 1.44 0 2.43-.85.98-.85.98-2.42Zm13.71 7.6h-4.47V27.2h4.47Zm11.64-16.68q2.27 0 3.91.87t2.54 2.52.89 4.05v2.16h-10.56q.07 1.9 1.13 2.97 1.07 1.08 2.96 1.08 1.56 0 2.87-.32 1.3-.33 2.68-.97v3.46q-1.22.6-2.54.87-1.33.28-3.22.28-2.46 0-4.36-.9-1.9-.91-2.97-2.77t-1.08-4.7q0-2.86.98-4.77.97-1.92 2.71-2.88 1.75-.95 4.06-.95m.03 3.17q-1.3 0-2.16.84-.86.83-.99 2.62h6.27q-.01-1-.36-1.77-.34-.78-1.02-1.23-.69-.46-1.74-.46m20.44-3.17q2.63 0 4.22 1.42 1.6 1.43 1.6 4.58V50h-4.47v-9.57q0-1.75-.64-2.65-.63-.89-2-.89-2.05 0-2.8 1.4-.74 1.38-.74 4V50h-4.47V33.62h3.42l.6 2.1h.25q.52-.85 1.3-1.38.79-.53 1.75-.78.96-.24 1.98-.24m15.8 16.97q-2.73 0-4.46-2.14-1.72-2.15-1.72-6.3 0-4.21 1.75-6.37 1.74-2.16 4.55-2.16 1.17 0 2.07.32t1.54.86 1.1 1.22h.16q-.1-.47-.22-1.39t-.12-1.88v-5.24h4.48V50h-3.43l-.86-2.12h-.2q-.42.67-1.05 1.22t-1.52.87-2.07.32m1.57-3.56q1.83 0 2.59-1.09t.8-3.29v-.48q0-2.39-.74-3.65-.73-1.27-2.72-1.27-1.48 0-2.32 1.27-.83 1.28-.83 3.68t.84 3.62 2.38 1.21m19.14-13.44q3.3 0 5.06 1.43 1.75 1.44 1.75 4.37V50h-3.12l-.86-2.23h-.12q-.7.88-1.43 1.44-.74.56-1.69.82t-2.31.26q-1.45 0-2.6-.55-1.15-.56-1.81-1.71t-.66-2.92q0-2.61 1.83-3.85t5.5-1.37l2.84-.09v-.71q0-1.3-.68-1.9-.67-.6-1.87-.6-1.19 0-2.33.34t-2.29.85l-1.48-3.01q1.3-.7 2.93-1.09 1.61-.4 3.34-.4m2.38 9.12-1.73.06q-2.17.06-3.01.78-.85.71-.85 1.89 0 1.02.6 1.45.6.44 1.57.44 1.44 0 2.43-.85t.99-2.42Zm18.37-9.1q.34 0 .79.04.44.04.72.1l-.33 4.19q-.22-.08-.63-.11-.4-.04-.7-.04-.86 0-1.67.22t-1.46.71-1.01 1.29-.38 1.96V50h-4.47V33.62h3.39l.66 2.76h.22q.48-.84 1.2-1.53.73-.7 1.66-1.12.93-.41 2.01-.41"/></svg>